<svg width="333" height="90" viewBox="0 0 333 90" fill="none" xmlns="http://www.w3.org/2000/svg">
<path d="M39.84 84.7799V44.8439H44.512V50.6039C45.1947 48.3852 46.3253 46.7639 47.904 45.7399C49.5253 44.7159 51.36 44.2039 53.408 44.2039C55.584 44.2039 57.5893 44.7585 59.424 45.8679C61.3013 46.9345 62.7947 48.5772 63.904 50.7959C65.056 53.0145 65.632 55.8305 65.632 59.2439C65.632 62.6572 65.0347 65.5372 63.84 67.8839C62.6453 70.1879 61.1093 71.9372 59.232 73.1319C57.3547 74.2839 55.3707 74.8599 53.28 74.8599C51.5307 74.8599 49.888 74.4545 48.352 73.6439C46.816 72.8332 45.5573 71.7025 44.576 70.2519V84.7799H39.84ZM52.512 70.7639C53.8773 70.7639 55.2 70.4439 56.48 69.8039C57.76 69.1212 58.8053 67.9479 59.616 66.2839C60.4267 64.6199 60.832 62.3372 60.832 59.4359C60.832 55.9372 60.1707 53.2279 58.848 51.3079C57.5253 49.3452 55.648 48.2999 53.216 48.1719C51.6373 48.0865 50.1867 48.4492 48.864 49.2599C47.5413 50.0279 46.4747 51.3292 45.664 53.1639C44.896 54.9985 44.512 57.4305 44.512 60.4599C44.5973 63.9159 45.3653 66.4972 46.816 68.2039C48.2667 69.9105 50.1653 70.7639 52.512 70.7639ZM85.408 74.7319C81.1413 74.7319 77.6853 73.4305 75.04 70.8279C72.4373 68.2252 71.136 64.4705 71.136 59.5639C71.136 56.2359 71.7333 53.4412 72.928 51.1799C74.1653 48.8759 75.7867 47.1265 77.792 45.9319C79.84 44.7372 82.1013 44.1399 84.576 44.1399C86.7947 44.1399 88.8 44.6305 90.592 45.6119C92.384 46.5932 93.8133 48.1079 94.88 50.1559C95.9467 52.2039 96.48 54.8279 96.48 58.0279C96.48 58.3692 96.4587 58.7319 96.416 59.1159C96.416 59.4572 96.3947 59.7985 96.352 60.1399H75.552C75.7227 63.8945 76.768 66.6465 78.688 68.3959C80.6507 70.1452 82.9333 71.0199 85.536 71.0199C88.608 71.0199 91.1253 69.9319 93.088 67.7559L95.648 70.2519C93.1733 73.2385 89.76 74.7319 85.408 74.7319ZM75.744 56.5559H91.808C91.808 53.8252 91.104 51.6705 89.696 50.0919C88.3307 48.4705 86.5173 47.6599 84.256 47.6599C82.2507 47.6599 80.4373 48.3852 78.816 49.8359C77.1947 51.2439 76.1707 53.4839 75.744 56.5559ZM119.136 74.5399C116.619 74.5399 114.699 73.9639 113.376 72.8119C112.096 71.6599 111.243 69.8892 110.816 67.4999C110.389 65.0679 110.24 61.9745 110.368 58.2199L110.752 48.6199H104.48V44.8439H110.88L111.136 37.3559L115.936 36.7799L116.576 36.7159L116.64 37.1639C116.427 37.4625 116.235 37.7612 116.064 38.0599C115.936 38.3585 115.829 38.8705 115.744 39.5959L115.296 44.8439H125.536V48.6199H115.36L114.912 58.5399C114.784 61.7825 114.869 64.2999 115.168 66.0919C115.467 67.8412 116 69.0572 116.768 69.7399C117.536 70.3799 118.56 70.6999 119.84 70.6999C121.248 70.6999 122.485 70.4225 123.552 69.8679C124.661 69.3132 125.813 68.6092 127.008 67.7559L128.416 71.4039C126.965 72.4705 125.472 73.2599 123.936 73.7719C122.4 74.2839 120.8 74.5399 119.136 74.5399ZM138.4 74.0919V70.3799H145.888V48.5559H138.784V44.8439H150.496V70.3799H157.344V74.0919H138.4ZM147.936 38.6999C147.04 38.6999 146.272 38.3799 145.632 37.7399C144.992 37.0999 144.672 36.3319 144.672 35.4359C144.672 34.4972 144.971 33.7079 145.568 33.0679C146.208 32.4279 146.997 32.1079 147.936 32.1079C148.832 32.1079 149.6 32.4492 150.24 33.1319C150.923 33.7719 151.264 34.5399 151.264 35.4359C151.264 36.3319 150.923 37.0999 150.24 37.7399C149.6 38.3799 148.832 38.6999 147.936 38.6999ZM183.136 74.5399C180.619 74.5399 178.699 73.9639 177.376 72.8119C176.096 71.6599 175.243 69.8892 174.816 67.4999C174.389 65.0679 174.24 61.9745 174.368 58.2199L174.752 48.6199H168.48V44.8439H174.88L175.136 37.3559L179.936 36.7799L180.576 36.7159L180.64 37.1639C180.427 37.4625 180.235 37.7612 180.064 38.0599C179.936 38.3585 179.829 38.8705 179.744 39.5959L179.296 44.8439H189.536V48.6199H179.36L178.912 58.5399C178.784 61.7825 178.869 64.2999 179.168 66.0919C179.467 67.8412 180 69.0572 180.768 69.7399C181.536 70.3799 182.56 70.6999 183.84 70.6999C185.248 70.6999 186.485 70.4225 187.552 69.8679C188.661 69.3132 189.813 68.6092 191.008 67.7559L192.416 71.4039C190.965 72.4705 189.472 73.2599 187.936 73.7719C186.4 74.2839 184.8 74.5399 183.136 74.5399ZM242.976 74.7319C241.013 74.7319 239.093 74.1772 237.216 73.0679C235.381 71.9159 233.867 70.1879 232.672 67.8839C231.477 65.5799 230.88 62.6785 230.88 59.1799C230.88 55.5959 231.499 52.6945 232.736 50.4759C233.973 48.2572 235.531 46.6359 237.408 45.6119C239.328 44.5879 241.269 44.0759 243.232 44.0759C245.237 44.0759 246.965 44.5452 248.416 45.4839C249.909 46.3799 251.019 47.5959 251.744 49.1319V31.5319H256.608V31.9799C256.352 32.2359 256.181 32.5132 256.096 32.8119C256.053 33.1105 256.032 33.6225 256.032 34.3479L256.096 69.5479C256.096 70.3159 256.117 71.0839 256.16 71.8519C256.245 72.5772 256.437 73.3239 256.736 74.0919H252.192C251.893 73.3239 251.701 72.5772 251.616 71.8519C251.573 71.0839 251.552 70.3159 251.552 69.5479C250.613 71.1265 249.419 72.3852 247.968 73.3239C246.517 74.2625 244.853 74.7319 242.976 74.7319ZM243.68 70.6999C245.557 70.6999 247.051 70.1879 248.16 69.1639C249.312 68.1399 250.123 66.7745 250.592 65.0679C251.104 63.3185 251.36 61.3985 251.36 59.3079C251.36 56.0225 250.72 53.2919 249.44 51.1159C248.16 48.9399 246.112 47.8519 243.296 47.8519C240.693 47.8519 238.709 48.8119 237.344 50.7319C236.021 52.6519 235.36 55.2332 235.36 58.4759C235.36 62.1452 236.064 65.1105 237.472 67.3719C238.88 69.5905 240.949 70.6999 243.68 70.6999ZM277.408 74.7319C273.141 74.7319 269.685 73.4305 267.04 70.8279C264.437 68.2252 263.136 64.4705 263.136 59.5639C263.136 56.2359 263.733 53.4412 264.928 51.1799C266.165 48.8759 267.787 47.1265 269.792 45.9319C271.84 44.7372 274.101 44.1399 276.576 44.1399C278.795 44.1399 280.8 44.6305 282.592 45.6119C284.384 46.5932 285.813 48.1079 286.88 50.1559C287.947 52.2039 288.48 54.8279 288.48 58.0279C288.48 58.3692 288.459 58.7319 288.416 59.1159C288.416 59.4572 288.395 59.7985 288.352 60.1399H267.552C267.723 63.8945 268.768 66.6465 270.688 68.3959C272.651 70.1452 274.933 71.0199 277.536 71.0199C280.608 71.0199 283.125 69.9319 285.088 67.7559L287.648 70.2519C285.173 73.2385 281.76 74.7319 277.408 74.7319ZM267.744 56.5559H283.808C283.808 53.8252 283.104 51.6705 281.696 50.0919C280.331 48.4705 278.517 47.6599 276.256 47.6599C274.251 47.6599 272.437 48.3852 270.816 49.8359C269.195 51.2439 268.171 53.4839 267.744 56.5559ZM306.144 74.0919L294.56 44.8439H299.168L308.192 67.7559L312.928 56.9399C313.952 54.5932 314.763 52.4172 315.36 50.4119C316 48.4065 316.469 46.5505 316.768 44.8439H321.12C320.779 46.6359 320.245 48.5985 319.52 50.7319C318.795 52.8652 317.899 55.1692 316.832 57.6439L309.728 74.0919H306.144Z" fill="black"/>
<path d="M211.232 74.7959C210.208 74.7959 209.333 74.4332 208.608 73.7079C207.883 72.9825 207.52 72.1292 207.52 71.1479C207.52 70.1665 207.883 69.3132 208.608 68.5879C209.333 67.8625 210.208 67.4999 211.232 67.4999C212.213 67.4999 213.067 67.8625 213.792 68.5879C214.517 69.3132 214.88 70.1665 214.88 71.1479C214.88 72.1292 214.517 72.9825 213.792 73.7079C213.067 74.4332 212.213 74.7959 211.232 74.7959Z" fill="#7F87BD"/>
<path d="M39.84 84.7799V44.8439H44.512V50.6039C45.1947 48.3852 46.3253 46.7639 47.904 45.7399C49.5253 44.7159 51.36 44.2039 53.408 44.2039C55.584 44.2039 57.5893 44.7585 59.424 45.8679C61.3013 46.9345 62.7947 48.5772 63.904 50.7959C65.056 53.0145 65.632 55.8305 65.632 59.2439C65.632 62.6572 65.0347 65.5372 63.84 67.8839C62.6453 70.1879 61.1093 71.9372 59.232 73.1319C57.3547 74.2839 55.3707 74.8599 53.28 74.8599C51.5307 74.8599 49.888 74.4545 48.352 73.6439C46.816 72.8332 45.5573 71.7025 44.576 70.2519V84.7799H39.84ZM52.512 70.7639C53.8773 70.7639 55.2 70.4439 56.48 69.8039C57.76 69.1212 58.8053 67.9479 59.616 66.2839C60.4267 64.6199 60.832 62.3372 60.832 59.4359C60.832 55.9372 60.1707 53.2279 58.848 51.3079C57.5253 49.3452 55.648 48.2999 53.216 48.1719C51.6373 48.0865 50.1867 48.4492 48.864 49.2599C47.5413 50.0279 46.4747 51.3292 45.664 53.1639C44.896 54.9985 44.512 57.4305 44.512 60.4599C44.5973 63.9159 45.3653 66.4972 46.816 68.2039C48.2667 69.9105 50.1653 70.7639 52.512 70.7639ZM85.408 74.7319C81.1413 74.7319 77.6853 73.4305 75.04 70.8279C72.4373 68.2252 71.136 64.4705 71.136 59.5639C71.136 56.2359 71.7333 53.4412 72.928 51.1799C74.1653 48.8759 75.7867 47.1265 77.792 45.9319C79.84 44.7372 82.1013 44.1399 84.576 44.1399C86.7947 44.1399 88.8 44.6305 90.592 45.6119C92.384 46.5932 93.8133 48.1079 94.88 50.1559C95.9467 52.2039 96.48 54.8279 96.48 58.0279C96.48 58.3692 96.4587 58.7319 96.416 59.1159C96.416 59.4572 96.3947 59.7985 96.352 60.1399H75.552C75.7227 63.8945 76.768 66.6465 78.688 68.3959C80.6507 70.1452 82.9333 71.0199 85.536 71.0199C88.608 71.0199 91.1253 69.9319 93.088 67.7559L95.648 70.2519C93.1733 73.2385 89.76 74.7319 85.408 74.7319ZM75.744 56.5559H91.808C91.808 53.8252 91.104 51.6705 89.696 50.0919C88.3307 48.4705 86.5173 47.6599 84.256 47.6599C82.2507 47.6599 80.4373 48.3852 78.816 49.8359C77.1947 51.2439 76.1707 53.4839 75.744 56.5559ZM119.136 74.5399C116.619 74.5399 114.699 73.9639 113.376 72.8119C112.096 71.6599 111.243 69.8892 110.816 67.4999C110.389 65.0679 110.24 61.9745 110.368 58.2199L110.752 48.6199H104.48V44.8439H110.88L111.136 37.3559L115.936 36.7799L116.576 36.7159L116.64 37.1639C116.427 37.4625 116.235 37.7612 116.064 38.0599C115.936 38.3585 115.829 38.8705 115.744 39.5959L115.296 44.8439H125.536V48.6199H115.36L114.912 58.5399C114.784 61.7825 114.869 64.2999 115.168 66.0919C115.467 67.8412 116 69.0572 116.768 69.7399C117.536 70.3799 118.56 70.6999 119.84 70.6999C121.248 70.6999 122.485 70.4225 123.552 69.8679C124.661 69.3132 125.813 68.6092 127.008 67.7559L128.416 71.4039C126.965 72.4705 125.472 73.2599 123.936 73.7719C122.4 74.2839 120.8 74.5399 119.136 74.5399ZM138.4 74.0919V70.3799H145.888V48.5559H138.784V44.8439H150.496V70.3799H157.344V74.0919H138.4ZM147.936 38.6999C147.04 38.6999 146.272 38.3799 145.632 37.7399C144.992 37.0999 144.672 36.3319 144.672 35.4359C144.672 34.4972 144.971 33.7079 145.568 33.0679C146.208 32.4279 146.997 32.1079 147.936 32.1079C148.832 32.1079 149.6 32.4492 150.24 33.1319C150.923 33.7719 151.264 34.5399 151.264 35.4359C151.264 36.3319 150.923 37.0999 150.24 37.7399C149.6 38.3799 148.832 38.6999 147.936 38.6999ZM183.136 74.5399C180.619 74.5399 178.699 73.9639 177.376 72.8119C176.096 71.6599 175.243 69.8892 174.816 67.4999C174.389 65.0679 174.24 61.9745 174.368 58.2199L174.752 48.6199H168.48V44.8439H174.88L175.136 37.3559L179.936 36.7799L180.576 36.7159L180.64 37.1639C180.427 37.4625 180.235 37.7612 180.064 38.0599C179.936 38.3585 179.829 38.8705 179.744 39.5959L179.296 44.8439H189.536V48.6199H179.36L178.912 58.5399C178.784 61.7825 178.869 64.2999 179.168 66.0919C179.467 67.8412 180 69.0572 180.768 69.7399C181.536 70.3799 182.56 70.6999 183.84 70.6999C185.248 70.6999 186.485 70.4225 187.552 69.8679C188.661 69.3132 189.813 68.6092 191.008 67.7559L192.416 71.4039C190.965 72.4705 189.472 73.2599 187.936 73.7719C186.4 74.2839 184.8 74.5399 183.136 74.5399ZM242.976 74.7319C241.013 74.7319 239.093 74.1772 237.216 73.0679C235.381 71.9159 233.867 70.1879 232.672 67.8839C231.477 65.5799 230.88 62.6785 230.88 59.1799C230.88 55.5959 231.499 52.6945 232.736 50.4759C233.973 48.2572 235.531 46.6359 237.408 45.6119C239.328 44.5879 241.269 44.0759 243.232 44.0759C245.237 44.0759 246.965 44.5452 248.416 45.4839C249.909 46.3799 251.019 47.5959 251.744 49.1319V31.5319H256.608V31.9799C256.352 32.2359 256.181 32.5132 256.096 32.8119C256.053 33.1105 256.032 33.6225 256.032 34.3479L256.096 69.5479C256.096 70.3159 256.117 71.0839 256.16 71.8519C256.245 72.5772 256.437 73.3239 256.736 74.0919H252.192C251.893 73.3239 251.701 72.5772 251.616 71.8519C251.573 71.0839 251.552 70.3159 251.552 69.5479C250.613 71.1265 249.419 72.3852 247.968 73.3239C246.517 74.2625 244.853 74.7319 242.976 74.7319ZM243.68 70.6999C245.557 70.6999 247.051 70.1879 248.16 69.1639C249.312 68.1399 250.123 66.7745 250.592 65.0679C251.104 63.3185 251.36 61.3985 251.36 59.3079C251.36 56.0225 250.72 53.2919 249.44 51.1159C248.16 48.9399 246.112 47.8519 243.296 47.8519C240.693 47.8519 238.709 48.8119 237.344 50.7319C236.021 52.6519 235.36 55.2332 235.36 58.4759C235.36 62.1452 236.064 65.1105 237.472 67.3719C238.88 69.5905 240.949 70.6999 243.68 70.6999ZM277.408 74.7319C273.141 74.7319 269.685 73.4305 267.04 70.8279C264.437 68.2252 263.136 64.4705 263.136 59.5639C263.136 56.2359 263.733 53.4412 264.928 51.1799C266.165 48.8759 267.787 47.1265 269.792 45.9319C271.84 44.7372 274.101 44.1399 276.576 44.1399C278.795 44.1399 280.8 44.6305 282.592 45.6119C284.384 46.5932 285.813 48.1079 286.88 50.1559C287.947 52.2039 288.48 54.8279 288.48 58.0279C288.48 58.3692 288.459 58.7319 288.416 59.1159C288.416 59.4572 288.395 59.7985 288.352 60.1399H267.552C267.723 63.8945 268.768 66.6465 270.688 68.3959C272.651 70.1452 274.933 71.0199 277.536 71.0199C280.608 71.0199 283.125 69.9319 285.088 67.7559L287.648 70.2519C285.173 73.2385 281.76 74.7319 277.408 74.7319ZM267.744 56.5559H283.808C283.808 53.8252 283.104 51.6705 281.696 50.0919C280.331 48.4705 278.517 47.6599 276.256 47.6599C274.251 47.6599 272.437 48.3852 270.816 49.8359C269.195 51.2439 268.171 53.4839 267.744 56.5559ZM306.144 74.0919L294.56 44.8439H299.168L308.192 67.7559L312.928 56.9399C313.952 54.5932 314.763 52.4172 315.36 50.4119C316 48.4065 316.469 46.5505 316.768 44.8439H321.12C320.779 46.6359 320.245 48.5985 319.52 50.7319C318.795 52.8652 317.899 55.1692 316.832 57.6439L309.728 74.0919H306.144Z" fill="black"/>
<path d="M211.232 74.7959C210.208 74.7959 209.333 74.4332 208.608 73.7079C207.883 72.9825 207.52 72.1292 207.52 71.1479C207.52 70.1665 207.883 69.3132 208.608 68.5879C209.333 67.8625 210.208 67.4999 211.232 67.4999C212.213 67.4999 213.067 67.8625 213.792 68.5879C214.517 69.3132 214.88 70.1665 214.88 71.1479C214.88 72.1292 214.517 72.9825 213.792 73.7079C213.067 74.4332 212.213 74.7959 211.232 74.7959Z" fill="#7F87BD"/>
<path fill-rule="evenodd" clip-rule="evenodd" d="M332.075 19.9706L312.983 0.87868C311.812 -0.292893 309.912 -0.292893 308.74 0.87868C307.569 2.05025 307.569 3.94975 308.74 5.12132L322.711 19.0919H313.858L37.2204 19.0919H36.8771V19.0933C16.4789 19.2567 0 33.9681 0 52.0919C0 70.3173 16.6641 85.0919 37.2204 85.0919C37.3905 85.0919 37.5604 85.0909 37.7301 85.0889V80.0881C37.5606 80.0906 37.3908 80.0919 37.2206 80.0919C20.5534 80.0919 7.04192 67.7797 7.04192 52.5919C7.04192 37.411 20.5411 25.1031 37.1979 25.0919H37.2433C37.4059 25.092 37.5681 25.0933 37.7301 25.0957V25.0919L322.711 25.0919L308.74 39.0624C307.569 40.234 307.569 42.1335 308.74 43.3051C309.912 44.4767 311.812 44.4767 312.983 43.3051L332.075 24.2132C333.247 23.0416 333.247 21.1421 332.075 19.9706ZM74.4406 52.1874L74.4407 52.0919L74.4406 51.9964V52.1874Z" fill="#7F87BD"/>
</svg>
